<svg width="137" height="133" fill="none" xmlns="http://www.w3.org/2000/svg"><path fill-rule="evenodd" clip-rule="evenodd" d="M90.535 27.007C67.38 12.513 46.041 25.8 29.561 37.649c-13.673 9.83-23.803 24.918-13.558 42.94 10.093 17.751 33.35 25.603 53.632 27.549 20.184 1.936 39.309-2.369 43.397-18.241 5.246-20.362 1.662-47.768-22.497-62.89Z" fill="#F0C419" fill-opacity=".09"/><path d="M48.309 77.12c-.94-2.062-5.293-2.774-5.293-2.774.892-1.932 2.978-3.054 5.117-2.752l.176 5.525Zm1.104 2.525h1.553c2.052-.187 3.998.926 4.843 2.77 0 0-4.157.681-5.226 2.636l-1.17-5.406Z" fill="#F3D55B"/><path d="M54.896 45.692v-.035s-1.105-5.732-9.168-5.38a.923.923 0 0 0-.727.403.887.887 0 0 0-.095.815c1.421 3.73 5.131 6.134 9.185 5.955l.805-1.758Z" fill="#24AE5F"/><path d="M57.241 46.792c2.282.23 4.096 1.98 4.371 4.214 0 0-3.354-.493-5.218.511h-1.498l2.345-4.725Z" fill="#F3D55B"/><path d="M55.188 55.187a75.61 75.61 0 0 1 1.197-3.667h.01a47.578 47.578 0 0 1 1.882-4.5c.383-.79.785-1.543 1.206-2.27a1.75 1.75 0 0 0 .01-1.784 1.82 1.82 0 0 0-1.573-.896h-.009a1.814 1.814 0 0 0-1.572.879 40.8 40.8 0 0 0-1.443 2.734v.01a44.73 44.73 0 0 0-.804 1.757 62.497 62.497 0 0 0-2.157 5.899l-1.517 5.576v.01c-3.271 13.734-3.683 28.59-3.737 32.436-.005.24.09.472.262.642.172.17.407.266.651.264h1.828c.498 0 .904-.39.914-.879a169.89 169.89 0 0 1 3.125-29.326l1.727-6.885Z" fill="#4FBA6F"/><path d="M64.946 70.034h5.483v5.45h-5.483v-5.45Zm6.524-8.544a23.97 23.97 0 0 0 .788-5.971c0-6.438-3.272-13.448-7.31-13.448v18.648l6.523.77Z" fill="#7F8C8D"/><path d="m70.422 70.017 2.739-4.654 4.807 2.723-2.739 4.655-4.807-2.724Zm-8.062-3.372a24.927 24.927 0 0 1-5.665-2.313c-5.675-3.219-10.235-9.504-8.215-12.938l16.467 9.325-2.587 5.926Z" fill="#547580"/><path d="M69.515 75.243H65.86c-1.01 0-1.827.802-1.827 1.793v13.448c0 .99.818 1.793 1.827 1.793h3.655c1.01 0 1.828-.803 1.828-1.793V77.036c0-.99-.818-1.793-1.828-1.793Zm21.001 5.137 1.828-3.105a1.775 1.775 0 0 0-.67-2.45l-11.87-6.723a1.847 1.847 0 0 0-2.496.656l-1.828 3.106a1.775 1.775 0 0 0 .67 2.449l11.87 6.724a1.847 1.847 0 0 0 2.496-.656Z" fill="#F0C419"/><path d="M73.171 65.38a5.348 5.348 0 0 1-2.74 4.654 5.538 5.538 0 0 1-5.484 0 5.402 5.402 0 0 1-2.586-3.39 5.213 5.213 0 0 1-.155-1.263 5.348 5.348 0 0 1 2.741-4.654v-.008a5.579 5.579 0 0 1 5.482.004 5.366 5.366 0 0 1 2.742 4.658Z" fill="#95A5A5"/><path d="M67.688 67.174c1.01 0 1.827-.803 1.827-1.793 0-.99-.818-1.794-1.827-1.794-1.01 0-1.828.803-1.828 1.794 0 .99.819 1.793 1.828 1.793Z" fill="#547580"/></svg>