<svg width="137" height="133" fill="none" xmlns="http://www.w3.org/2000/svg"><path fill-rule="evenodd" clip-rule="evenodd" d="M46.169 27.223c23.155-14.494 44.494-1.206 60.974 10.642 13.673 9.83 23.803 24.918 13.558 42.94-10.093 17.752-33.35 25.604-53.632 27.549-20.184 1.937-39.309-2.369-43.398-18.241-5.245-20.362-1.661-47.768 22.498-62.89Z" fill="#EEFFF4"/><path d="M85.153 69.63H78.96c5.78-6.236 6.068-14.958 5.897-18.606a1.573 1.573 0 0 0-1.017-1.401 1.65 1.65 0 0 0-1.76.355l-5.72 5.634a.791.791 0 0 0 1.11 1.127l5.72-5.634c.01-.009.02-.018.041-.015.02 0 .037.007.046.013.17 3.66-.139 12.718-6.566 18.528h-4.025c.07-.145.136-.292.203-.438 1.553-1.568 4.47-4.776 6.403-8.508a.79.79 0 1 0-1.405-.728c-1.035 2-2.395 3.865-3.648 5.38a22.48 22.48 0 0 0 .691-5.505c0-7.182-3.45-15.971-4.934-19.417a1.55 1.55 0 0 0-1.429-.93 1.55 1.55 0 0 0-1.43.93c-1.483 3.446-4.934 12.235-4.934 19.417 0 1.85.236 3.7.692 5.504-1.253-1.514-2.613-3.38-3.648-5.379a.791.791 0 0 0-1.405.728c1.933 3.732 4.85 6.94 6.403 8.508.066.146.133.293.203.438h-4.025c-6.426-5.809-6.737-14.863-6.566-18.528a.093.093 0 0 1 .046-.014c.02-.002.03.007.04.016l5.73 5.643a.791.791 0 0 0 1.11-1.128l-5.73-5.642a1.65 1.65 0 0 0-1.759-.355 1.572 1.572 0 0 0-1.017 1.4c-.171 3.649.116 12.37 5.897 18.608H51.98a3.056 3.056 0 0 0-3.053 3.053 3.056 3.056 0 0 0 3.053 3.053h.605l3.541 15.185a3.303 3.303 0 0 0 3.23 2.564h18.42a3.303 3.303 0 0 0 3.23-2.564l3.54-15.185h.606a3.056 3.056 0 0 0 3.053-3.053 3.057 3.057 0 0 0-3.053-3.053ZM68.567 41.097c1.457 3.393 4.781 11.885 4.781 18.736 0 4.187-1.272 7.58-2.428 9.799h-1.562V54.25a.79.79 0 1 0-1.582 0v15.38h-1.562c-1.156-2.218-2.428-5.61-2.428-9.798 0-6.85 3.323-15.343 4.781-18.736Zm16.586 33.059h-24.76a.79.79 0 1 0 0 1.582h22.53l-3.457 14.826a1.728 1.728 0 0 1-1.69 1.34H59.358c-.811 0-1.506-.55-1.69-1.34l-3.457-14.826h2.485a.79.79 0 1 0 0-1.582H51.98c-.81 0-1.47-.66-1.47-1.471s.66-1.471 1.47-1.471h33.172c.81 0 1.47.66 1.47 1.47 0 .812-.66 1.472-1.47 1.472Z" fill="#0CA941"/></svg>