<svg width="126" height="25" fill="none" xmlns="http://www.w3.org/2000/svg"><path d="M11.018 3.354c.299-.922 1.602-.922 1.902 0l1.479 4.552a1 1 0 0 0 .95.69h4.787c.97 0 1.372 1.24.588 1.81l-3.872 2.813a1 1 0 0 0-.364 1.118l1.48 4.552c.299.922-.756 1.688-1.54 1.118l-3.872-2.813a1 1 0 0 0-1.175 0l-3.872 2.813c-.784.57-1.839-.196-1.54-1.118l1.48-4.552a1 1 0 0 0-.363-1.118l-3.873-2.813c-.783-.57-.38-1.81.588-1.81h4.786a1 1 0 0 0 .952-.69l1.479-4.552Zm25.407 0c.3-.922 1.603-.922 1.902 0l1.479 4.552a1 1 0 0 0 .951.69h4.786c.97 0 1.372 1.24.588 1.81l-3.872 2.813a1 1 0 0 0-.363 1.118l1.479 4.552c.3.922-.755 1.688-1.54 1.118l-3.871-2.813a1 1 0 0 0-1.176 0l-3.872 2.813c-.784.57-1.838-.196-1.54-1.118l1.48-4.552a1 1 0 0 0-.363-1.118l-3.873-2.813c-.783-.57-.38-1.81.588-1.81h4.787a1 1 0 0 0 .95-.69l1.48-4.552Zm25.407 0c.3-.922 1.603-.922 1.902 0l1.48 4.552a1 1 0 0 0 .95.69h4.787c.968 0 1.371 1.24.587 1.81l-3.872 2.813a1 1 0 0 0-.363 1.118l1.479 4.552c.3.922-.755 1.688-1.539 1.118l-3.872-2.813a1 1 0 0 0-1.176 0l-3.872 2.813c-.784.57-1.838-.196-1.539-1.118l1.48-4.552a1 1 0 0 0-.364-1.118l-3.872-2.813c-.784-.57-.381-1.81.587-1.81h4.787a1 1 0 0 0 .95-.69l1.48-4.552Zm25.407 0c.3-.922 1.603-.922 1.902 0l1.48 4.552a1 1 0 0 0 .95.69h4.787c.968 0 1.371 1.24.587 1.81l-3.872 2.813a1 1 0 0 0-.363 1.118l1.479 4.552c.3.922-.755 1.688-1.539 1.118l-3.872-2.813a1 1 0 0 0-1.176 0l-3.872 2.813c-.784.57-1.838-.196-1.539-1.118l1.48-4.552a1 1 0 0 0-.364-1.118l-3.872-2.813c-.784-.57-.381-1.81.587-1.81h4.787a1 1 0 0 0 .95-.69l1.48-4.552Zm25.407 0c.299-.922 1.603-.922 1.902 0l1.479 4.552a1 1 0 0 0 .951.69h4.787c.968 0 1.371 1.24.588 1.81l-3.873 2.813a1 1 0 0 0-.363 1.118l1.479 4.552c.299.922-.755 1.688-1.539 1.118l-3.872-2.813a1 1 0 0 0-1.176 0l-3.872 2.813c-.784.57-1.838-.196-1.539-1.118l1.479-4.552a1 1 0 0 0-.363-1.118l-3.872-2.813c-.784-.57-.381-1.81.587-1.81h4.787a1 1 0 0 0 .951-.69l1.479-4.552Z" fill="gold"/></svg>