<svg width="118" height="96" fill="none" xmlns="http://www.w3.org/2000/svg"><path fill-rule="evenodd" clip-rule="evenodd" d="M70.815 35.222c-.655-7.094-5.267-12.852-11.622-16.924-7.17-4.54-16.436-7.025-24.326-6.99-2.772.074-5.486.414-8.048 1.033-3.781.853-7.532 2.137-11.13 3.701-.315.121-.476.522-.323.802.153.28.62.439.935.318 3.095-.876 6.177-1.67 9.303-2.114 3.125-.445 6.224-.724 9.437-.473 7.178.109 15.483 2.442 21.922 6.612 5.267 3.473 9.157 8.18 9.817 13.996-1.783.06-3.47.135-5.197.46-3.248.596-6.383 1.721-9.18 3.838-2.007 1.474-4.28 4.014-4.975 6.548-.643 2.2-.311 4.47 1.883 6.18 4.28 3.488 9.01 2.87 13.01.005 4.642-3.19 8.152-9.201 8.712-13.376 1.757.106 3.406.281 5.15.47 6.976.76 13.695 3.78 18.861 8.517 4.546 4.298 8.17 10.07 9.59 16.689 1.232 5.31.297 10.62-1.426 15.293-1.198 3.221-2.837 6.117-4.411 8.597-1.438 2.246-2.798 3.993-4.175 5.225-.11.068-.122.151-.026.166l.192.03c1.806-.823 3.895-2.199 5.884-4.187 2.234-2.29 4.284-5.293 5.797-8.635 2.269-5.014 3.31-10.988 2.182-16.964-1.59-7.413-5.507-13.828-10.866-18.595-5.87-5.274-13.402-8.764-21.45-9.607a61.158 61.158 0 0 0-5.52-.615Zm-4.201 3.516a30.216 30.216 0 0 0-4.1.376c-2.632.438-5.15 1.405-7.388 3.098-1.229.915-2.645 2.397-3.375 3.902-.582 1.187-.874 2.42.258 3.366 2.443 2.005 5.21 1.333 7.531-.262 3.537-2.427 6.536-7.07 7.074-10.48Z" fill="#F47458"/><path fill-rule="evenodd" clip-rule="evenodd" d="M16.782 17.237c1.01-.778 2.02-1.557 2.933-2.35 1.133-.93 2.36-1.845 3.397-2.79 2.85-2.45 5.425-5.028 8.18-7.492.327-.204.283-.552.034-.847-.249-.295-.647-.273-.975-.069-2.719 1.618-5.617 3.122-8.336 4.74a44.426 44.426 0 0 0-3.497 2.176c-2.54 1.731-4.818 3.674-7.082 5.534-.232.219-.695.657-.87 1.141-.175.484-.254.983-.127 1.43.127.446.35.907 1.067 1.362.371.143 1.114.431 2.172.598 3.558.561 12.48.86 14.334.981l3.746-.006c.205-.053.494-.007.808-.128.411-.106.835-.295 1.067-.514.123-.151-.153-.28.04-.25.096.016.026-.166-.084-.098-.135.235-.166-.197-.275-.129-.328.205.04-.25-.25-.295-.095-.015.11-.068-.082-.098-.193-.03.205-.053.026-.166-.083-.099.206-.053.122-.151-.083-.099.18.113.11-.069l.083.099s.026-.167.07.181c-.11.068-.123.152-.026.167.083.098.179.113.192.03.787.636.096.015.468.16.096.014.013-.084.109-.069.494-.007-.166-.197.066-.416.109-.068-.193-.03-.084-.098.123-.151-.218.136-.262-.212.026-.166-.122.151-.275-.129-.166-.197.11-.068-.346-.31-.275-.129-1.07-.084-1.346-.212l-3.475-.463c-1.539-.243-7.58-.684-11.632-1.238Z" fill="#F47458"/></svg>